/* XPM */
static char *man_xpm[] = {
"256 64 2 1",
" 	c None",
"1	c #FFFFFF",
"                                                                                                                                                                                                                                                                ",
"                                                                                                                                                                                                                                                                ",
"                                                                                                                                                                                                                                                                ",
"                                                                                                                                                                                                                                                                ",
"                                                                                                                                                                                                                                                                ",
"                                                                                                                                                                                                                                                                ",
"                                                                                                  11111111                                                                                                                        11111111                      ",
"                                                                                                  11111111                                                                                                                        11111111                      ",
"                                    11111111                                                    111111111111                                                        11111111                                                    111111111111                    ",
"                                    11111111                                                    111111111111                                                        11111111                                                    111111111111                    ",
"                                  111111111111                                                1111111111111111                                                    111111111111                                                1111111111111111                  ",
"                                  111111111111                                                1111111111111111                                                    111111111111                                                1111111111111111                  ",
"                                1111111111111111                                              1111111111111111                                                  1111111111111111                                              1111111111111111                  ",
"                                1111111111111111                                              1111111111111111                                                  1111111111111111                                              1111111111111111                  ",
"                                1111111111111111                                              1111111111111111                                                  1111111111111111                                              1111111111111111                  ",
"                                1111111111111111                                              1111111111111111                                                  1111111111111111                                              1111111111111111                  ",
"                                1111111111111111                                              1111111111111111                                                  1111111111111111                                              1111111111111111                  ",
"                                1111111111111111                                              1111111111111111                                                  1111111111111111                                              1111111111111111                  ",
"                                1111111111111111                                                111111111111                                                    1111111111111111                                                111111111111                    ",
"                                1111111111111111                                                111111111111                                                    1111111111111111                                                111111111111                    ",
"                                  111111111111                                                    11111111                                                        111111111111                                                    11111111                      ",
"                                  111111111111                                                    11111111                                                        111111111111                                                    11111111                      ",
"                                    11111111                                                        1111                                                            11111111                                                        1111                        ",
"                                    11111111                                                        1111                                                            11111111                                                        1111                        ",
"                                      1111                                                        1111                                                                1111                                                        1111                          ",
"                                      1111                                                        1111                                                                1111                                                        1111                          ",
"                                  111111                                                        1111  111111111111111111111111                                    111111                                                        1111  111111111111111111111111  ",
"                                  111111                                                        1111  111111111111111111111111                                    111111                                                        1111  111111111111111111111111  ",
"                                111111                                                        111111  111111111111111111111111                                  111111                                                        111111  111111111111111111111111  ",
"                                111111                                                        111111  111111111111111111111111                                  111111                                                        111111  111111111111111111111111  ",
"                              111111  111111111111111111111111                                11111111                                                        111111  111111111111111111111111                                11111111                          ",
"                              111111  111111111111111111111111                                11111111                                                        111111  111111111111111111111111                                11111111                          ",
"                              111111  111111111111111111111111                                11111111111111                                                  111111  111111111111111111111111                                11111111111111                    ",
"                              111111  111111111111111111111111                                11111111111111                                                  111111  111111111111111111111111                                11111111111111                    ",
"                              11111111                                                        11111111111111                                                  11111111                                                        11111111111111                    ",
"                              11111111                                                        11111111111111                                                  11111111                                                        11111111111111                    ",
"                              11111111111111                                                  11111111111111                                                  11111111111111                                                  11111111111111                    ",
"                              11111111111111                                                  11111111111111                                                  11111111111111                                                  11111111111111                    ",
"                              11111111111111                                                  11111111111111                                                  11111111111111                                                  11111111111111                    ",
"                              11111111111111                                                  11111111111111                                                  11111111111111                                                  11111111111111                    ",
"                              111111111111                                                      1111111111                                                    111111111111                                                      1111111111                      ",
"                              111111111111                                                      1111111111                                                    111111111111                                                      1111111111                      ",
"                                                                                                                                                                                                                                                                ",
"                                                                                                                                                                                                                                                                ",
"                              1111111111                                                        1111111111                                                    1111111111                                                        1111111111                      ",
"                              1111111111                                                        1111111111                                                    1111111111                                                        1111111111                      ",
"                              111111111111                                                      1111111111                                                    111111111111                                                      1111111111                      ",
"                              111111111111                                                      1111111111                                                    111111111111                                                      1111111111                      ",
"                              11111111  1111                                                    1111111111                                                      111111111111                                                    1111111111                      ",
"                              11111111  1111                                                    1111111111                                                      111111111111                                                    1111111111                      ",
"                            1111111111  111111                                                  1111111111                                                  1111    1111111111                                                  1111111111                      ",
"                            1111111111  111111                                                  1111111111                                                  1111    1111111111                                                  1111111111                      ",
"                        111111111111  1111111111                                                1111111111                                              111111111111  1111111111                                                1111111111                      ",
"                        111111111111  1111111111                                                1111111111                                              111111111111  1111111111                                                1111111111                      ",
"                    11111111111111      1111111111                                              1111111111                                          11111111111111      1111111111                                              1111111111                      ",
"                    11111111111111      1111111111                                              1111111111                                          11111111111111      1111111111                                              1111111111                      ",
"                    111111111111        1111111111                                              1111111111                                          111111111111        1111111111                                              1111111111                      ",
"                    111111111111        1111111111                                              1111111111                                          111111111111        1111111111                                              1111111111                      ",
"                    1111111111            11111111                                              1111111111                                          1111111111            11111111                                              1111111111                      ",
"                    1111111111            11111111                                              1111111111                                          1111111111            11111111                                              1111111111                      ",
"                    111111                11111111                                              1111111111                                          111111                11111111                                              1111111111                      ",
"                    111111                11111111                                              1111111111                                          111111                11111111                                              1111111111                      ",
"                                                                                                                                                                                                                                                                ",
"                                                                                                                                                                                                                                                                "
};
