/* XPM */
static char *man_xpm[] = {
"64 64 5 1",
"0	c #000000",
"1	c #000000",
"2	c #676767",
"3	c #B6B6B6",
"4	c #FFFFFF",
"0000000000000000000000000000000200000000000000000000000000000000",
"0000000000000000000000000000002000000000000000000000000000000000",
"0000000000000000000000000000020000000000000000440000000000004400",
"0000000000000000000000000000200000000000000000440000000000004400",
"0000000000000000000000000002000000000000000000440000000000004400",
"0000000000000000000000000020000000000000000000440444440000004400",
"0000000000000000000000000200000000000000000000440444440000004400",
"0000000000000000000000002000000000000000000000440444440000004400",
"0000000000000000000000020000000000000000000000440440000000004400",
"0000000000000000000000200000000000000000000000440400444400004400",
"0000000000000000000002000000000000000000000000440004444440004400",
"0000000000000000000020000000000000000000000000440414444441404400",
"0000000000000000000200000000000000000000000000440414444441404400",
"0000000000000000002000000000000000000000000000440414444441404400",
"0000000000000000020000000000000000000000000000000410444401400000",
"0000000000000000200000000000000000000000000000000441000014400000",
"0000000000000002000000000000000000000000000000000444444444400000",
"0000000000000020000000000000000000000000000000000044444444000000",
"0000000000000200000000000000000000000000000000000000000000000000",
"0000000000002000000000000000000000000000000000000000004444400000",
"0000000000020000000000000000000000000000000000000000004444400000",
"0000000000200000000000000000000000000000000000000000004444400000",
"0000000002000000000000000000000000000000000000000000004444400000",
"0000000020000000000000000000000000000000000000000000000000000000",
"0000000200000000000000000000000000000000000000000000000000000000",
"0000002000000000000000000000000000000000000000000000000000000000",
"0000020000000000000000000000000000000000000000000000000000000000",
"0000200000000000000000000000000000000000000000000000000000000000",
"0002000000000000000000000000000000000000000000000000000000000000",
"0020000000000000000000000000000000000000000000000000000000000000",
"0200000000000000000000000000000000000000000000000000000000000000",
"2000000000000000000000000000000000000000000000000000000000000000",
"0000000000000000000000000000000000000000000000000000000000000002",
"0000000000000000000000000000000000000000000000000000000000000020",
"0000000000000000000000000000000000000000000000000000000000000200",
"0000000000000000000000000000000000000000000000000000000000002000",
"0000000000000000000000000000000000000000000000000000000000020000",
"0000000000000000004444000000000000000000000000000000000000200000",
"0000000000000000044444400000000000000000000000000000000002000000",
"0000000000000000444444440000000000000000000000000000000020000000",
"0000000000000000444444440000000000000000000000000000000200000000",
"0000000000000000444444440000000000000000000000000000002000000000",
"0000000000000000444444440000000000000000000000000000020000000000",
"0000000000000000044444400000000000000000000000000000200000000000",
"0000000000000000004444000000000000000000000000000002000000000000",
"0000000000000000000440000000000000000000000000000020000000000000",
"0000000000000000000000000000000000000000000000000200000000000000",
"0000000000000000040444444444444000000000000000002000000000000000",
"0000000000000000440444444444444000000000000000020000000000000000",
"0000000000000000444000000000000000000000000000200000000000000000",
"0000000000000004444444000000000000000000000002000000000000000000",
"0000000000000004444444000000000000000000000020000000000000000000",
"0000000000000004444440000000000000000000000200000000000000000000",
"0000000000000000000000000000000000000000002000000000000000000000",
"0000000000000004444400000000000000000000020000000000000000000000",
"0000000000000004444440000000000000000000200000000000000000000000",
"0000000000000004444044000000000000000002000000000000000000000000",
"0000000000000044444044400000000000000020000000000000000000000000",
"0000000000004444440444440000000000000200000000000000000000000000",
"0000000000444444400044444000000000002000000000000000000000000000",
"0000000000444444000044444000000000020000000000000000000000000000",
"0000000000444440000004444000000000200000000000000000000000000000",
"0000000000444000000004444000000002000000000000000000000000000000",
"0000000000000000000000000000000020000000000000000000000000000000"
};
