/* XPM */
static char *sokoban_xpm[] = {
"96 64 2 1",
" 	c None",
"1	c #FFFFFF",
"                                                                                                ",
"        11            11                11            11                11            11        ",
"        11            11                11            11                11            11        ",
"        11  111       11                11            11                11       111  11        ",
"        11 11111      11                11            11                11      11111 11        ",
"        11 11111      11                11            11                11      11111 11        ",
"        11 11         11                11            11                11         11 11        ",
"        11 1  1111    11                11    1111    11                11    1111  1 11        ",
"        11   111111   11                11   111111   11                11   111111   11        ",
"        11 1 111111 1 11                11 1 111111 1 11                11 1 111111 1 11        ",
"        11 1 111111 1 11                11 1 111111 1 11                11 1 111111 1 11        ",
"        11 1 111111 1 11                11 1 111111 1 11                11 1 111111 1 11        ",
"           1  1111  1                      1  1111  1                      1  1111  1           ",
"           11      11                      11      11                      11      11           ",
"           1111111111                      1111111111                      1111111111           ",
"            11111111                        11111111                        11111111            ",
"                                                                                                ",
"                11111                                                      11111                ",
"                11111                                                      11111                ",
"                11111                                                      11111                ",
"                 111                                                        111                 ",
"                                                                                                ",
"                                                                                                ",
"                                                                                                ",
"                                                                                                ",
"                                                                                                ",
"                                                                                                ",
"                                                                                                ",
"                                                                                                ",
"                                                                                                ",
"                                                                                                ",
"                                                                                                ",
"                                                                                                ",
"                                                                                                ",
"                                                                                                ",
"                                                 1111                                           ",
"                                                111111                                          ",
"                  1111                         11111111                           1111          ",
"                 111111                        11111111                          111111         ",
"                11111111                       11111111                         11111111        ",
"                11111111                       11111111                         11111111        ",
"                11111111                        111111                          11111111        ",
"                11111111                         1111                           11111111        ",
"                 111111                           11                             111111         ",
"                  1111                           11                               1111          ",
"                   11                           11 111111111111                    11           ",
"                 11                            111 111111111111                  11             ",
"                11 111111111111                1111                             11 111111111111 ",
"               111 111111111111                1111111                         111 111111111111 ",
"               1111                            1111111                         1111             ",
"               1111111                         1111111                         1111111          ",
"               1111111                         1111111                         1111111          ",
"               111111                           11111                          111111           ",
"                                                                                                ",
"               11111                            11111                          11111            ",
"               111111                           11111                          111111           ",
"               1111 11                          11111                           111111          ",
"              11111 111                         11111                         11  11111         ",
"            111111 11111                        11111                       111111 11111        ",
"          1111111   11111                       11111                     1111111   11111       ",
"          111111    11111                       11111                     111111    11111       ",
"          11111      1111                       11111                     11111      1111       ",
"          111        1111                       11111                     111        1111       ",
"                                                                                                "
};
